<svg xmlns="http://www.w3.org/2000/svg" xmlns:xlink="http://www.w3.org/1999/xlink" width="500" zoomAndPan="magnify" viewBox="0 0 375 374.999991" height="500" preserveAspectRatio="xMidYMid meet" version="1.0"><defs><g/><clipPath id="7282f3afa5"><path d="M 90 218 L 295 218 L 295 295.175781 L 90 295.175781 Z M 90 218 " clip-rule="nonzero"/></clipPath><clipPath id="00dffa98ef"><path d="M 78.566406 79.925781 L 290 79.925781 L 290 161 L 78.566406 161 Z M 78.566406 79.925781 " clip-rule="nonzero"/></clipPath><clipPath id="3b0c8e6c63"><path d="M 124 195 L 261.800781 195 L 261.800781 213 L 124 213 Z M 124 195 " clip-rule="nonzero"/></clipPath><clipPath id="f98bc3013b"><path d="M 113.300781 143 L 240 143 L 240 200 L 113.300781 200 Z M 113.300781 143 " clip-rule="nonzero"/></clipPath></defs><path fill="#ff5f00" d="M 147.027344 140.226562 C 158.351562 129.425781 173.207031 123.476562 188.859375 123.476562 C 210.1875 123.476562 230.1875 134.890625 241.0625 153.269531 C 241.644531 154.253906 242.683594 154.800781 243.75 154.800781 C 244.292969 154.800781 244.839844 154.660156 245.335938 154.367188 C 246.820312 153.488281 247.308594 151.574219 246.433594 150.089844 C 234.441406 129.824219 212.382812 117.238281 188.859375 117.238281 C 171.59375 117.238281 155.210938 123.796875 142.71875 135.710938 C 141.472656 136.902344 141.425781 138.875 142.617188 140.125 C 143.804688 141.367188 145.78125 141.417969 147.027344 140.226562 Z M 147.027344 140.226562 " fill-opacity="1" fill-rule="nonzero"/><path fill="#ff5f00" d="M 130.566406 216.910156 C 129.03125 217.6875 128.417969 219.566406 129.195312 221.101562 C 140.660156 243.722656 163.519531 257.773438 188.859375 257.773438 C 215.789062 257.773438 239.964844 241.746094 250.457031 216.941406 C 251.128906 215.355469 250.386719 213.527344 248.796875 212.855469 C 247.210938 212.179688 245.378906 212.925781 244.710938 214.511719 C 235.199219 237 213.273438 251.53125 188.859375 251.53125 C 165.886719 251.53125 145.15625 238.792969 134.761719 218.28125 C 133.980469 216.746094 132.101562 216.132812 130.566406 216.910156 Z M 130.566406 216.910156 " fill-opacity="1" fill-rule="nonzero"/><g clip-path="url(#7282f3afa5)"><path fill="#ff5f00" d="M 288.511719 220.824219 C 280.9375 215.84375 268.996094 220.625 261.839844 231.503906 C 255.558594 241.054688 255.054688 252.132812 260.152344 258.066406 C 242.074219 277.269531 216.535156 288.796875 188.859375 288.796875 C 146.972656 288.796875 109.742188 262.183594 96.214844 222.570312 C 95.65625 220.941406 93.882812 220.070312 92.253906 220.628906 C 90.625 221.183594 89.753906 222.957031 90.308594 224.589844 C 104.699219 266.726562 144.304688 295.039062 188.859375 295.039062 C 218.667969 295.039062 246.148438 282.460938 265.417969 261.570312 C 272.898438 264 282.949219 259.152344 289.269531 249.546875 C 296.425781 238.664062 296.085938 225.808594 288.511719 220.824219 Z M 288.511719 220.824219 " fill-opacity="1" fill-rule="nonzero"/></g><g clip-path="url(#00dffa98ef)"><path fill="#ff5f00" d="M 100.761719 128.574219 C 96.605469 135.167969 93.136719 142.289062 90.5 149.867188 C 89.933594 151.492188 90.792969 153.273438 92.421875 153.839844 C 94.050781 154.40625 95.828125 153.542969 96.394531 151.917969 C 98.941406 144.597656 102.304688 137.722656 106.359375 131.386719 L 112.015625 134.226562 C 108.386719 139.804688 105.367188 145.753906 103.035156 151.964844 C 102.425781 153.578125 103.242188 155.378906 104.855469 155.984375 C 105.21875 156.121094 105.589844 156.183594 105.953125 156.183594 C 107.214844 156.183594 108.402344 155.414062 108.875 154.160156 C 111.441406 147.324219 114.894531 140.820312 119.132812 134.835938 C 119.625 134.140625 119.792969 133.316406 119.667969 132.539062 L 119.671875 132.539062 L 117.25 117.375 C 135.390625 97.9375 161.128906 86.210938 188.859375 86.210938 C 232.988281 86.210938 271.84375 115.925781 283.351562 158.46875 C 283.726562 159.859375 284.984375 160.773438 286.359375 160.773438 C 286.628906 160.773438 286.902344 160.738281 287.175781 160.664062 C 288.839844 160.214844 289.824219 158.503906 289.375 156.839844 C 277.132812 111.582031 235.800781 79.972656 188.859375 79.972656 C 159.136719 79.972656 131.570312 92.636719 112.25 113.59375 L 93.277344 118.722656 L 93.28125 118.734375 C 92.574219 118.925781 91.925781 119.355469 91.488281 120.015625 C 86.410156 127.707031 82.253906 135.988281 79.140625 144.625 C 78.554688 146.246094 79.394531 148.03125 81.015625 148.617188 C 81.367188 148.742188 81.722656 148.800781 82.074219 148.800781 C 83.351562 148.800781 84.550781 148.011719 85.011719 146.738281 C 87.644531 139.433594 91.074219 132.398438 95.207031 125.785156 Z M 100.761719 128.574219 " fill-opacity="1" fill-rule="nonzero"/></g><g clip-path="url(#3b0c8e6c63)"><path fill="#ff5f00" d="M 231.125 202.238281 C 200.070312 204.503906 172.351562 204.507812 141.421875 198.949219 C 136.5 198.066406 129.171875 196.042969 124.765625 195.726562 C 140.070312 204.65625 180.703125 208.113281 201.894531 208.085938 L 217.691406 207.828125 C 211.199219 208.226562 202.597656 209.789062 195.3125 210.382812 C 188.960938 210.898438 176.523438 210.929688 171.183594 212.023438 C 188.015625 212.828125 204.660156 213.238281 221.265625 211.140625 C 233.742188 209.566406 253.421875 205.40625 261.65625 199.113281 C 252.085938 199.519531 241.152344 201.5 231.125 202.238281 Z M 231.125 202.238281 " fill-opacity="1" fill-rule="evenodd"/></g><g clip-path="url(#f98bc3013b)"><path fill="#ff5f00" d="M 129.886719 181.644531 C 124.996094 180.613281 117.746094 178.367188 113.339844 177.9375 C 119.070312 181.507812 128.472656 184.402344 139.105469 186.644531 C 138.933594 187.257812 138.789062 187.878906 138.660156 188.503906 C 139.039062 187.921875 139.421875 187.351562 139.8125 186.792969 C 144.511719 187.765625 149.4375 188.617188 154.378906 189.34375 L 154.484375 185.773438 C 150.320312 185.257812 146.121094 184.644531 141.890625 183.933594 C 143.457031 181.882812 145.144531 179.9375 146.949219 178.089844 C 153.066406 179.335938 159.714844 180.332031 166.386719 181.109375 L 166.386719 177.523438 C 160.871094 177.007812 155.308594 176.332031 149.65625 175.46875 C 151.972656 173.375 154.445312 171.484375 157.078125 169.800781 C 163.703125 171.226562 171.039062 172.359375 178.40625 173.21875 L 178.40625 169.640625 C 172.6875 169.105469 166.917969 168.394531 161.050781 167.492188 C 192.667969 150.917969 232.882812 170.257812 239.375 199.226562 C 238.265625 171.597656 209.015625 156.09375 187.191406 154.964844 C 207.765625 139.058594 162.554688 141.203125 183.539062 155.140625 C 174.09375 155.941406 163.304688 160.136719 154.640625 166.445312 L 153.691406 166.28125 C 148.777344 165.386719 141.449219 163.359375 137.039062 163.058594 C 140.726562 165.203125 145.882812 167.039062 151.878906 168.582031 C 149.578125 170.464844 147.472656 172.546875 145.558594 174.824219 C 144.265625 174.605469 142.96875 174.386719 141.667969 174.148438 C 136.746094 173.261719 129.417969 171.238281 125.011719 170.929688 C 129.445312 173.515625 136.011719 175.648438 143.609375 177.355469 C 142.21875 179.316406 141.0625 181.40625 140.140625 183.628906 C 136.753906 183.027344 133.335938 182.367188 129.886719 181.644531 Z M 129.886719 181.644531 " fill-opacity="1" fill-rule="evenodd"/></g><path fill="#ff5f00" d="M 202.175781 167.617188 C 215.125 175.160156 221.992188 185.769531 226.152344 198.84375 C 228.601562 198.855469 231.042969 198.71875 233.476562 198.4375 C 226.714844 184.128906 218.179688 171.992188 202.175781 167.617188 Z M 202.175781 167.617188 " fill-opacity="1" fill-rule="evenodd"/><g fill="#eeeeee" fill-opacity="1"><g transform="translate(139.303013, 129.252471)"><g><path d="M 1.007812 -4.628906 L 4.660156 -7.964844 C 4.828125 -8.117188 4.988281 -8.09375 5.128906 -7.941406 L 6.527344 -6.40625 C 6.683594 -6.238281 6.675781 -6.09375 6.507812 -5.9375 L 1.011719 -0.925781 C 0.859375 -0.785156 0.699219 -0.777344 0.542969 -0.945312 L -10.210938 -12.730469 C -10.351562 -12.886719 -10.34375 -13.0625 -10.191406 -13.203125 L -8.59375 -14.65625 C -8.425781 -14.8125 -8.265625 -14.789062 -8.125 -14.636719 Z M 1.007812 -4.628906 "/></g></g></g><g fill="#eeeeee" fill-opacity="1"><g transform="translate(146.065132, 122.98764)"><g><path d="M -0.863281 -3.046875 C 0.257812 -1.445312 1.703125 -1.191406 3.304688 -2.308594 L 5.210938 -3.644531 C 6.808594 -4.761719 7.066406 -6.210938 5.945312 -7.808594 L -0.148438 -16.527344 C -1.269531 -18.128906 -2.714844 -18.382812 -4.316406 -17.265625 L -6.222656 -15.929688 C -7.824219 -14.8125 -8.078125 -13.363281 -6.960938 -11.765625 Z M 2.261719 -4.851562 C 1.816406 -4.542969 1.425781 -4.597656 1.105469 -5.054688 L -4.398438 -12.921875 C -4.707031 -13.363281 -4.636719 -13.769531 -4.191406 -14.078125 L -3.203125 -14.769531 C -2.761719 -15.078125 -2.355469 -15.007812 -2.046875 -14.566406 L 3.453125 -6.699219 C 3.773438 -6.238281 3.691406 -5.851562 3.25 -5.542969 Z M 2.261719 -4.851562 "/></g></g></g><g fill="#eeeeee" fill-opacity="1"><g transform="translate(153.756361, 117.539856)"><g><path d="M 2.15625 -4.21875 L 6.542969 -6.507812 C 6.746094 -6.613281 6.894531 -6.550781 6.988281 -6.363281 L 7.949219 -4.523438 C 8.058594 -4.320312 8.011719 -4.179688 7.808594 -4.074219 L 1.214844 -0.632812 C 1.03125 -0.539062 0.871094 -0.574219 0.765625 -0.773438 L -6.613281 -14.921875 C -6.707031 -15.105469 -6.65625 -15.273438 -6.472656 -15.371094 L -4.554688 -16.371094 C -4.355469 -16.476562 -4.203125 -16.414062 -4.109375 -16.230469 Z M 2.15625 -4.21875 "/></g></g></g><g fill="#eeeeee" fill-opacity="1"><g transform="translate(161.79522, 113.183463)"><g><path d="M 10.417969 -3.6875 C 10.65625 -3.769531 10.691406 -3.917969 10.574219 -4.117188 L 1.992188 -18.027344 C 1.886719 -18.210938 1.742188 -18.246094 1.5625 -18.183594 L -1.160156 -17.222656 C -1.335938 -17.160156 -1.425781 -17.039062 -1.394531 -16.828125 L 0.683594 -0.617188 C 0.703125 -0.382812 0.84375 -0.296875 1.058594 -0.375 L 3.152344 -1.117188 C 3.328125 -1.179688 3.394531 -1.3125 3.371094 -1.5 L 2.886719 -4.546875 L 6.371094 -5.78125 L 7.933594 -3.117188 C 8.035156 -2.953125 8.167969 -2.890625 8.34375 -2.953125 Z M 5.078125 -7.878906 L 2.570312 -6.992188 L 1.40625 -14.273438 Z M 5.078125 -7.878906 "/></g></g></g><g fill="#eeeeee" fill-opacity="1"><g transform="translate(172.560299, 109.534829)"><g><path d="M -2.292969 -14.148438 C -2.230469 -13.882812 -2.058594 -13.777344 -1.792969 -13.839844 L -1.289062 -13.957031 L -1.675781 -11.988281 C -1.703125 -11.832031 -1.617188 -11.746094 -1.457031 -11.785156 L -0.546875 -12 C -0.425781 -12.027344 -0.375 -12.082031 -0.335938 -12.199219 L 0.359375 -14.117188 C 0.421875 -14.300781 0.429688 -14.453125 0.382812 -14.65625 L -0.0898438 -16.636719 C -0.152344 -16.898438 -0.328125 -17.007812 -0.589844 -16.945312 L -2.429688 -16.507812 C -2.691406 -16.445312 -2.800781 -16.269531 -2.738281 -16.007812 Z M -2.292969 -14.148438 "/></g></g></g><g fill="#eeeeee" fill-opacity="1"><g transform="translate(176.499779, 108.426921)"><g><path d="M 1.996094 -14.960938 C 0.0820312 -14.695312 -0.824219 -13.519531 -0.558594 -11.585938 L -0.0625 -8.023438 C -0.0117188 -7.632812 0.210938 -7.414062 0.597656 -7.339844 L 5.757812 -6.417969 L 6.046875 -4.339844 C 6.125 -3.785156 5.875 -3.476562 5.339844 -3.402344 L 4.226562 -3.25 C 3.710938 -3.179688 3.367188 -3.402344 3.289062 -3.957031 L 3.167969 -4.824219 C 3.136719 -5.050781 3.019531 -5.136719 2.792969 -5.105469 L 0.714844 -4.820312 C 0.511719 -4.789062 0.402344 -4.671875 0.433594 -4.445312 L 0.617188 -3.105469 C 0.886719 -1.171875 2.078125 -0.289062 3.992188 -0.554688 L 6.296875 -0.875 C 8.230469 -1.140625 9.117188 -2.3125 8.851562 -4.246094 L 8.3125 -8.117188 C 8.257812 -8.507812 8.039062 -8.730469 7.671875 -8.804688 L 2.46875 -9.71875 L 2.226562 -11.46875 C 2.152344 -12.003906 2.421875 -12.332031 2.9375 -12.40625 L 4.066406 -12.5625 C 4.625 -12.640625 4.929688 -12.386719 5.003906 -11.851562 L 5.125 -10.988281 C 5.152344 -10.78125 5.292969 -10.675781 5.5 -10.703125 L 7.578125 -10.992188 C 7.804688 -11.023438 7.890625 -11.164062 7.863281 -11.367188 L 7.675781 -12.726562 C 7.40625 -14.660156 6.234375 -15.546875 4.300781 -15.277344 Z M 1.996094 -14.960938 "/></g></g></g><g fill="#eeeeee" fill-opacity="1"><g transform="translate(186.067761, 107.191452)"><g/></g></g><g fill="#eeeeee" fill-opacity="1"><g transform="translate(190.524075, 106.851223)"><g><path d="M 10.261719 -15.71875 C 10.273438 -15.925781 10.195312 -16.054688 9.945312 -16.070312 L 2.316406 -16.515625 C 2.128906 -16.523438 1.996094 -16.40625 1.984375 -16.199219 L 1.054688 -0.269531 C 1.042969 -0.0625 1.160156 0.0664062 1.347656 0.078125 L 8.980469 0.523438 C 9.230469 0.539062 9.320312 0.417969 9.332031 0.210938 L 9.453125 -1.863281 C 9.464844 -2.089844 9.390625 -2.199219 9.140625 -2.214844 L 3.953125 -2.515625 L 4.199219 -6.707031 L 8.160156 -6.476562 C 8.367188 -6.464844 8.5 -6.582031 8.511719 -6.808594 L 8.632812 -8.863281 C 8.644531 -9.089844 8.527344 -9.222656 8.320312 -9.234375 L 4.359375 -9.464844 L 4.601562 -13.613281 L 9.785156 -13.3125 C 10.035156 -13.296875 10.125 -13.4375 10.140625 -13.644531 Z M 10.261719 -15.71875 "/></g></g></g><g fill="#eeeeee" fill-opacity="1"><g transform="translate(199.836878, 107.254052)"><g><path d="M 10.832031 2.195312 C 11.078125 2.246094 11.183594 2.140625 11.1875 1.90625 L 10.980469 -14.4375 C 10.984375 -14.648438 10.878906 -14.753906 10.695312 -14.789062 L 7.863281 -15.363281 C 7.679688 -15.402344 7.542969 -15.34375 7.460938 -15.148438 L 0.90625 -0.175781 C 0.796875 0.0351562 0.875 0.175781 1.097656 0.222656 L 3.277344 0.664062 C 3.460938 0.703125 3.582031 0.621094 3.660156 0.445312 L 4.8125 -2.414062 L 8.4375 -1.679688 L 8.40625 1.40625 C 8.410156 1.597656 8.492188 1.722656 8.675781 1.757812 Z M 8.410156 -4.144531 L 5.800781 -4.675781 L 8.546875 -11.515625 Z M 8.410156 -4.144531 "/></g></g></g><g fill="#eeeeee" fill-opacity="1"><g transform="translate(210.764248, 109.489217)"><g><path d="M 6.394531 -15.371094 C 6.199219 -15.441406 6.039062 -15.363281 5.96875 -15.167969 L 5.285156 -13.207031 C 5.214844 -13.011719 5.292969 -12.851562 5.488281 -12.78125 L 7.761719 -11.988281 L 3.285156 0.796875 C 3.210938 1.015625 3.292969 1.152344 3.492188 1.222656 L 5.53125 1.9375 C 5.746094 2.011719 5.878906 1.949219 5.953125 1.730469 L 10.429688 -11.054688 L 12.703125 -10.257812 C 12.917969 -10.179688 13.058594 -10.265625 13.128906 -10.460938 L 13.8125 -12.421875 C 13.882812 -12.617188 13.824219 -12.769531 13.609375 -12.84375 Z M 6.394531 -15.371094 "/></g></g></g><g fill="#eeeeee" fill-opacity="1"><g transform="translate(218.932694, 112.259316)"><g><path d="M 15.613281 -10.421875 C 15.707031 -10.605469 15.6875 -10.753906 15.464844 -10.867188 L 8.621094 -14.273438 C 8.453125 -14.359375 8.285156 -14.300781 8.191406 -14.117188 L 1.078125 0.164062 C 0.984375 0.351562 1.042969 0.519531 1.207031 0.601562 L 8.050781 4.011719 C 8.277344 4.121094 8.40625 4.046875 8.5 3.863281 L 9.425781 2.003906 C 9.527344 1.796875 9.5 1.667969 9.273438 1.554688 L 4.625 -0.757812 L 6.496094 -4.515625 L 10.050781 -2.746094 C 10.234375 -2.652344 10.402344 -2.710938 10.503906 -2.914062 L 11.421875 -4.753906 C 11.523438 -4.960938 11.46875 -5.128906 11.28125 -5.21875 L 7.730469 -6.988281 L 9.582031 -10.707031 L 14.230469 -8.394531 C 14.453125 -8.28125 14.59375 -8.375 14.6875 -8.5625 Z M 15.613281 -10.421875 "/></g></g></g><g fill="#eeeeee" fill-opacity="1"><g transform="translate(227.366743, 116.380102)"><g><path d="M 15.566406 -5.929688 C 16.660156 -7.550781 16.378906 -8.992188 14.761719 -10.085938 L 10.441406 -13.003906 C 10.269531 -13.121094 10.097656 -13.085938 9.980469 -12.914062 L 1.046875 0.304688 C 0.929688 0.476562 0.964844 0.652344 1.136719 0.769531 L 2.925781 1.976562 C 3.097656 2.09375 3.273438 2.058594 3.386719 1.886719 L 6.320312 -2.449219 L 7.507812 -1.648438 L 5.707031 3.503906 C 5.636719 3.683594 5.664062 3.828125 5.835938 3.941406 L 7.625 5.152344 C 7.816406 5.28125 7.988281 5.246094 8.078125 5.003906 L 9.9375 -0.308594 C 11.007812 -0.109375 11.949219 -0.578125 12.726562 -1.730469 Z M 7.855469 -4.722656 L 10.972656 -9.335938 L 12.675781 -8.183594 C 13.125 -7.882812 13.203125 -7.476562 12.898438 -7.03125 L 10.710938 -3.792969 C 10.410156 -3.347656 10.007812 -3.269531 9.558594 -3.570312 Z M 7.855469 -4.722656 "/></g></g></g><g fill="#eeeeee" fill-opacity="1"><g transform="translate(235.369766, 121.669793)"><g><path d="M 17.417969 -6.691406 C 17.230469 -6.859375 17.054688 -6.878906 16.839844 -6.761719 L 11.121094 -3.886719 L 13.378906 -9.875 C 13.46875 -10.101562 13.429688 -10.273438 13.246094 -10.441406 L 11.699219 -11.832031 C 11.46875 -12.039062 11.234375 -11.996094 11.132812 -11.699219 L 7.777344 -2.28125 L 3.445312 2.539062 C 3.265625 2.738281 3.273438 2.945312 3.476562 3.125 L 4.960938 4.460938 C 5.160156 4.640625 5.367188 4.628906 5.546875 4.429688 L 9.878906 -0.390625 L 18.890625 -4.722656 C 19.175781 -4.855469 19.191406 -5.09375 18.960938 -5.300781 Z M 17.417969 -6.691406 "/></g></g></g><g fill="#eeeeee" fill-opacity="1"><g transform="translate(122.573473, 249.185735)"><g><path d="M 11.875 1.171875 C 11.21875 1.816406 10.492188 2.132812 9.703125 2.125 C 8.921875 2.125 8.210938 1.800781 7.578125 1.15625 L 5.203125 -1.265625 L 1.921875 1.953125 L 0.9375 0.953125 L 8.65625 -6.640625 L 11.796875 -3.4375 C 12.546875 -2.675781 12.925781 -1.894531 12.9375 -1.09375 C 12.957031 -0.289062 12.601562 0.460938 11.875 1.171875 Z M 6.0625 -2.109375 L 8.078125 -0.0625 C 8.535156 0.40625 9.015625 0.648438 9.515625 0.671875 C 10.015625 0.703125 10.472656 0.507812 10.890625 0.09375 C 11.316406 -0.320312 11.519531 -0.773438 11.5 -1.265625 C 11.476562 -1.765625 11.238281 -2.25 10.78125 -2.71875 L 8.765625 -4.765625 Z M 6.0625 -2.109375 "/></g></g></g><g fill="#eeeeee" fill-opacity="1"><g transform="translate(129.989441, 256.709664)"><g><path d="M 9.5625 0.71875 C 9.738281 1.070312 9.84375 1.410156 9.875 1.734375 C 9.914062 2.054688 9.882812 2.34375 9.78125 2.59375 C 9.6875 2.84375 9.554688 3.082031 9.390625 3.3125 C 9.234375 3.539062 9.066406 3.757812 8.890625 3.96875 C 8.710938 4.175781 8.546875 4.382812 8.390625 4.59375 C 8.242188 4.800781 8.144531 5.023438 8.09375 5.265625 C 8.039062 5.503906 8.054688 5.738281 8.140625 5.96875 L 7.921875 6.234375 L 6.609375 5.203125 C 6.742188 4.710938 7.03125 4.1875 7.46875 3.625 L 8.0625 2.875 C 8.476562 2.34375 8.664062 1.867188 8.625 1.453125 C 8.582031 1.035156 8.320312 0.640625 7.84375 0.265625 L 5.046875 -1.9375 L 2.171875 1.71875 L 1.09375 0.859375 L 7.796875 -7.640625 L 11.703125 -4.546875 C 12.546875 -3.890625 13.03125 -3.191406 13.15625 -2.453125 C 13.289062 -1.710938 13.066406 -0.972656 12.484375 -0.234375 C 12.097656 0.242188 11.675781 0.554688 11.21875 0.703125 C 10.757812 0.859375 10.207031 0.863281 9.5625 0.71875 Z M 11.234375 -0.984375 C 11.472656 -1.273438 11.625 -1.550781 11.6875 -1.8125 C 11.757812 -2.082031 11.753906 -2.332031 11.671875 -2.5625 C 11.597656 -2.789062 11.484375 -2.992188 11.328125 -3.171875 C 11.179688 -3.359375 10.976562 -3.554688 10.71875 -3.765625 L 8.109375 -5.8125 L 5.8125 -2.890625 L 8.421875 -0.84375 C 9.003906 -0.382812 9.519531 -0.164062 9.96875 -0.1875 C 10.414062 -0.207031 10.835938 -0.472656 11.234375 -0.984375 Z M 11.234375 -0.984375 "/></g></g></g><g fill="#eeeeee" fill-opacity="1"><g transform="translate(138.966172, 263.698203)"><g><path d="M 4.875 -2.828125 L 2.953125 0.359375 L 8.4375 3.640625 L 7.8125 4.6875 L 1.140625 0.6875 L 6.71875 -8.59375 L 13.140625 -4.734375 L 12.5 -3.671875 L 7.265625 -6.8125 L 5.484375 -3.859375 L 10.53125 -0.828125 L 9.921875 0.203125 Z M 4.875 -2.828125 "/></g></g></g><g fill="#eeeeee" fill-opacity="1"><g transform="translate(148.053827, 269.199619)"><g><path d="M 6.375 2.734375 L 5.046875 2.15625 L 5.78125 -7.375 L 2.21875 0.953125 L 1.015625 0.4375 L 5.28125 -9.515625 L 7.046875 -8.765625 L 6.28125 1.171875 L 12.890625 -6.25 L 14.65625 -5.5 L 10.390625 4.453125 L 9.1875 3.9375 L 12.75 -4.390625 Z M 6.375 2.734375 "/></g></g></g><g fill="#eeeeee" fill-opacity="1"><g transform="translate(159.977556, 274.051678)"><g><path d="M 5.984375 -9.46875 L 2.75 0.859375 L 1.421875 0.4375 L 4.65625 -9.890625 Z M 5.984375 -9.46875 "/></g></g></g><g fill="#eeeeee" fill-opacity="1"><g transform="translate(164.335001, 275.550893)"><g><path d="M 10.296875 -8.84375 L 11.640625 -8.5625 L 10.03125 -1.125 C 9.8125 -0.0703125 9.257812 0.691406 8.375 1.171875 C 7.5 1.648438 6.441406 1.753906 5.203125 1.484375 C 3.953125 1.210938 3.03125 0.6875 2.4375 -0.09375 C 1.851562 -0.882812 1.675781 -1.8125 1.90625 -2.875 L 3.515625 -10.3125 L 4.859375 -10.015625 L 3.25 -2.578125 C 3.09375 -1.816406 3.21875 -1.191406 3.625 -0.703125 C 4.03125 -0.222656 4.644531 0.101562 5.46875 0.28125 C 6.3125 0.457031 7.019531 0.394531 7.59375 0.09375 C 8.175781 -0.195312 8.539062 -0.695312 8.6875 -1.40625 Z M 10.296875 -8.84375 "/></g></g></g><g fill="#eeeeee" fill-opacity="1"><g transform="translate(175.541638, 277.973152)"><g><path d="M 6.921875 0.484375 L 5.46875 0.390625 L 3.0625 -8.875 L 2.421875 0.171875 L 1.109375 0.078125 L 1.875 -10.71875 L 3.796875 -10.578125 L 6.3125 -0.953125 L 10.125 -10.125 L 12.03125 -10 L 11.265625 0.796875 L 9.96875 0.703125 L 10.609375 -8.34375 Z M 6.921875 0.484375 "/></g></g></g><g fill="#eeeeee" fill-opacity="1"><g transform="translate(188.39673, 278.651979)"><g/></g></g><g fill="#eeeeee" fill-opacity="1"><g transform="translate(192.975929, 278.61884)"><g><path d="M 4.953125 -1.46875 C 5.398438 -1.519531 5.785156 -1.609375 6.109375 -1.734375 C 6.429688 -1.859375 6.679688 -1.992188 6.859375 -2.140625 C 7.046875 -2.296875 7.1875 -2.472656 7.28125 -2.671875 C 7.375 -2.867188 7.429688 -3.046875 7.453125 -3.203125 C 7.472656 -3.367188 7.472656 -3.539062 7.453125 -3.71875 C 7.398438 -4.144531 7.195312 -4.476562 6.84375 -4.71875 C 6.5 -4.96875 5.972656 -5.140625 5.265625 -5.234375 L 2.546875 -5.640625 C 1.085938 -5.835938 0.28125 -6.585938 0.125 -7.890625 C 0.0078125 -8.867188 0.257812 -9.675781 0.875 -10.3125 C 1.5 -10.957031 2.398438 -11.347656 3.578125 -11.484375 C 4.804688 -11.628906 5.796875 -11.445312 6.546875 -10.9375 C 7.304688 -10.4375 7.753906 -9.664062 7.890625 -8.625 L 6.59375 -8.46875 C 6.5 -9.164062 6.203125 -9.675781 5.703125 -10 C 5.203125 -10.332031 4.523438 -10.445312 3.671875 -10.34375 C 2.941406 -10.257812 2.375 -10.023438 1.96875 -9.640625 C 1.570312 -9.253906 1.410156 -8.789062 1.484375 -8.25 C 1.523438 -7.832031 1.691406 -7.519531 1.984375 -7.3125 C 2.273438 -7.101562 2.753906 -6.953125 3.421875 -6.859375 L 6.21875 -6.453125 C 6.976562 -6.347656 7.582031 -6.078125 8.03125 -5.640625 C 8.476562 -5.210938 8.738281 -4.671875 8.8125 -4.015625 C 8.84375 -3.722656 8.835938 -3.429688 8.796875 -3.140625 C 8.753906 -2.859375 8.648438 -2.554688 8.484375 -2.234375 C 8.328125 -1.910156 8.109375 -1.617188 7.828125 -1.359375 C 7.554688 -1.097656 7.175781 -0.863281 6.6875 -0.65625 C 6.207031 -0.445312 5.644531 -0.304688 5 -0.234375 C 4.59375 -0.179688 4.203125 -0.164062 3.828125 -0.1875 C 3.453125 -0.21875 3.0625 -0.296875 2.65625 -0.421875 C 2.25 -0.554688 1.890625 -0.738281 1.578125 -0.96875 C 1.265625 -1.207031 0.992188 -1.539062 0.765625 -1.96875 C 0.535156 -2.40625 0.378906 -2.921875 0.296875 -3.515625 L 1.59375 -3.671875 L 1.609375 -3.578125 C 1.640625 -3.273438 1.71875 -2.992188 1.84375 -2.734375 C 1.96875 -2.484375 2.148438 -2.238281 2.390625 -2 C 2.640625 -1.769531 2.984375 -1.601562 3.421875 -1.5 C 3.859375 -1.40625 4.367188 -1.394531 4.953125 -1.46875 Z M 4.953125 -1.46875 "/></g></g></g><g fill="#eeeeee" fill-opacity="1"><g transform="translate(203.435138, 277.359408)"><g><path d="M 1.484375 -5.4375 L 2.359375 -1.828125 L 8.578125 -3.328125 L 8.859375 -2.140625 L 1.296875 -0.3125 L -1.25 -10.84375 L 6.03125 -12.609375 L 6.3125 -11.40625 L 0.375 -9.96875 L 1.1875 -6.609375 L 6.921875 -8 L 7.21875 -6.828125 Z M 1.484375 -5.4375 "/></g></g></g><g fill="#eeeeee" fill-opacity="1"><g transform="translate(213.698054, 274.856358)"><g><path d="M 5.53125 -7.828125 C 5.925781 -7.816406 6.269531 -7.738281 6.5625 -7.59375 C 6.863281 -7.457031 7.09375 -7.28125 7.25 -7.0625 C 7.414062 -6.851562 7.550781 -6.617188 7.65625 -6.359375 C 7.769531 -6.097656 7.867188 -5.835938 7.953125 -5.578125 C 8.046875 -5.328125 8.140625 -5.082031 8.234375 -4.84375 C 8.335938 -4.613281 8.476562 -4.414062 8.65625 -4.25 C 8.84375 -4.082031 9.054688 -3.972656 9.296875 -3.921875 L 9.421875 -3.59375 L 7.859375 -3 C 7.503906 -3.363281 7.203125 -3.878906 6.953125 -4.546875 L 6.609375 -5.453125 C 6.367188 -6.066406 6.0625 -6.460938 5.6875 -6.640625 C 5.3125 -6.828125 4.832031 -6.8125 4.25 -6.59375 L 0.921875 -5.328125 L 2.578125 -0.984375 L 1.296875 -0.5 L -2.5625 -10.625 L 2.09375 -12.390625 C 3.09375 -12.773438 3.941406 -12.832031 4.640625 -12.5625 C 5.335938 -12.289062 5.851562 -11.71875 6.1875 -10.84375 C 6.40625 -10.269531 6.460938 -9.742188 6.359375 -9.265625 C 6.265625 -8.796875 5.988281 -8.316406 5.53125 -7.828125 Z M 4.9375 -10.15625 C 4.800781 -10.5 4.640625 -10.769531 4.453125 -10.96875 C 4.265625 -11.164062 4.046875 -11.285156 3.796875 -11.328125 C 3.554688 -11.378906 3.316406 -11.390625 3.078125 -11.359375 C 2.835938 -11.328125 2.566406 -11.253906 2.265625 -11.140625 L -0.84375 -9.953125 L 0.484375 -6.46875 L 3.59375 -7.65625 C 4.289062 -7.914062 4.742188 -8.242188 4.953125 -8.640625 C 5.171875 -9.046875 5.164062 -9.550781 4.9375 -10.15625 Z M 4.9375 -10.15625 "/></g></g></g><g fill="#eeeeee" fill-opacity="1"><g transform="translate(224.305097, 270.743022)"><g><path d="M 5.140625 -2.75 L 3.828125 -2.046875 L -4.703125 -9.75 L -3.40625 -10.453125 L 3.71875 -3.875 L 2.0625 -13.359375 L 3.359375 -14.0625 Z M 5.140625 -2.75 "/></g></g></g><g fill="#eeeeee" fill-opacity="1"><g transform="translate(233.357017, 265.745834)"><g><path d="M -3.5 -10.640625 L 2.40625 -1.5625 L 1.25 -0.8125 L -4.65625 -9.890625 Z M -3.5 -10.640625 "/></g></g></g><g fill="#eeeeee" fill-opacity="1"><g transform="translate(237.2884, 263.341686)"><g><path d="M -2.71875 -4.578125 C -2.9375 -4.847656 -3.132812 -5.128906 -3.3125 -5.421875 C -3.488281 -5.722656 -3.648438 -6.054688 -3.796875 -6.421875 C -3.953125 -6.796875 -4.066406 -7.164062 -4.140625 -7.53125 C -4.222656 -7.90625 -4.253906 -8.296875 -4.234375 -8.703125 C -4.222656 -9.109375 -4.15625 -9.5 -4.03125 -9.875 C -3.914062 -10.25 -3.71875 -10.632812 -3.4375 -11.03125 C -3.15625 -11.425781 -2.800781 -11.796875 -2.375 -12.140625 C -0.519531 -13.597656 1.300781 -13.53125 3.09375 -11.9375 L 1.984375 -11.0625 C 1.390625 -11.582031 0.785156 -11.847656 0.171875 -11.859375 C -0.429688 -11.878906 -1.070312 -11.617188 -1.75 -11.078125 C -2.570312 -10.429688 -2.972656 -9.601562 -2.953125 -8.59375 C -2.929688 -7.59375 -2.492188 -6.546875 -1.640625 -5.453125 C -0.796875 -4.390625 0.117188 -3.738281 1.109375 -3.5 C 2.097656 -3.269531 3.015625 -3.488281 3.859375 -4.15625 C 4.554688 -4.707031 4.9375 -5.328125 5 -6.015625 C 5.0625 -6.710938 4.832031 -7.523438 4.3125 -8.453125 L 5.4375 -9.328125 C 6.957031 -6.867188 6.679688 -4.828125 4.609375 -3.203125 C 4.117188 -2.804688 3.613281 -2.515625 3.09375 -2.328125 C 2.582031 -2.148438 2.097656 -2.070312 1.640625 -2.09375 C 1.179688 -2.113281 0.738281 -2.191406 0.3125 -2.328125 C -0.113281 -2.460938 -0.515625 -2.660156 -0.890625 -2.921875 C -1.265625 -3.179688 -1.601562 -3.445312 -1.90625 -3.71875 C -2.207031 -3.988281 -2.476562 -4.273438 -2.71875 -4.578125 Z M -2.71875 -4.578125 "/></g></g></g><g fill="#eeeeee" fill-opacity="1"><g transform="translate(246.181457, 256.246986)"><g><path d="M -1.609375 -5.40625 L 1.03125 -2.796875 L 5.515625 -7.359375 L 6.390625 -6.5 L 0.9375 -0.953125 L -6.78125 -8.546875 L -1.53125 -13.890625 L -0.65625 -13.015625 L -4.9375 -8.65625 L -2.46875 -6.234375 L 1.65625 -10.4375 L 2.515625 -9.609375 Z M -1.609375 -5.40625 "/></g></g></g><g fill="#eeeeee" fill-opacity="1"><g transform="translate(78.564491, 195.501868)"><g><path d="M 2.71875 -4.9375 L 2.71875 -1.21875 L 9.109375 -1.21875 L 9.109375 0 L 1.328125 0 L 1.328125 -10.828125 L 8.828125 -10.828125 L 8.828125 -9.59375 L 2.71875 -9.59375 L 2.71875 -6.140625 L 8.609375 -6.140625 L 8.609375 -4.9375 Z M 2.71875 -4.9375 "/></g></g></g><g fill="#eeeeee" fill-opacity="1"><g transform="translate(88.457793, 195.501868)"><g><path d="M 5.078125 -0.875 C 5.523438 -0.875 5.914062 -0.914062 6.25 -1 C 6.59375 -1.09375 6.863281 -1.203125 7.0625 -1.328125 C 7.257812 -1.460938 7.414062 -1.625 7.53125 -1.8125 C 7.65625 -2 7.734375 -2.171875 7.765625 -2.328125 C 7.804688 -2.484375 7.828125 -2.648438 7.828125 -2.828125 C 7.828125 -3.253906 7.664062 -3.609375 7.34375 -3.890625 C 7.03125 -4.179688 6.53125 -4.414062 5.84375 -4.59375 L 3.171875 -5.296875 C 1.742188 -5.671875 1.03125 -6.507812 1.03125 -7.8125 C 1.03125 -8.800781 1.375 -9.578125 2.0625 -10.140625 C 2.757812 -10.710938 3.703125 -11 4.890625 -11 C 6.128906 -11 7.09375 -10.703125 7.78125 -10.109375 C 8.476562 -9.523438 8.832031 -8.703125 8.84375 -7.640625 L 7.53125 -7.640625 C 7.519531 -8.347656 7.285156 -8.890625 6.828125 -9.265625 C 6.367188 -9.648438 5.707031 -9.84375 4.84375 -9.84375 C 4.113281 -9.84375 3.523438 -9.675781 3.078125 -9.34375 C 2.640625 -9.007812 2.421875 -8.566406 2.421875 -8.015625 C 2.421875 -7.597656 2.550781 -7.269531 2.8125 -7.03125 C 3.070312 -6.789062 3.535156 -6.585938 4.203125 -6.421875 L 6.921875 -5.6875 C 7.660156 -5.488281 8.226562 -5.148438 8.625 -4.671875 C 9.019531 -4.203125 9.21875 -3.632812 9.21875 -2.96875 C 9.21875 -2.675781 9.179688 -2.390625 9.109375 -2.109375 C 9.035156 -1.828125 8.898438 -1.535156 8.703125 -1.234375 C 8.503906 -0.929688 8.25 -0.664062 7.9375 -0.4375 C 7.632812 -0.207031 7.226562 -0.0195312 6.71875 0.125 C 6.21875 0.269531 5.640625 0.34375 4.984375 0.34375 C 4.578125 0.34375 4.1875 0.304688 3.8125 0.234375 C 3.445312 0.171875 3.070312 0.0546875 2.6875 -0.109375 C 2.300781 -0.285156 1.96875 -0.507812 1.6875 -0.78125 C 1.40625 -1.0625 1.171875 -1.425781 0.984375 -1.875 C 0.804688 -2.332031 0.710938 -2.859375 0.703125 -3.453125 L 2.015625 -3.453125 L 2.015625 -3.359375 C 2.015625 -3.054688 2.0625 -2.769531 2.15625 -2.5 C 2.25 -2.238281 2.398438 -1.976562 2.609375 -1.71875 C 2.828125 -1.457031 3.144531 -1.25 3.5625 -1.09375 C 3.988281 -0.945312 4.492188 -0.875 5.078125 -0.875 Z M 5.078125 -0.875 "/></g></g></g><g fill="#eeeeee" fill-opacity="1"><g transform="translate(98.351094, 195.501868)"><g><path d="M 5.25 -9.59375 L 5.25 0 L 3.875 0 L 3.875 -9.59375 L 0.3125 -9.59375 L 0.3125 -10.828125 L 8.8125 -10.828125 L 8.8125 -9.59375 Z M 5.25 -9.59375 "/></g></g></g><g fill="#eeeeee" fill-opacity="1"><g transform="translate(107.411714, 195.501868)"><g><path d="M 2.828125 -1.546875 L 2.828125 0 L 1.28125 0 L 1.28125 -1.546875 Z M 2.828125 -1.546875 "/></g></g></g><g fill="#eeeeee" fill-opacity="1"><g transform="translate(258.666172, 195.501868)"><g><path d="M 3.84375 -7.5 L 1.515625 -7.5 L 1.515625 -8.421875 C 1.878906 -8.472656 2.171875 -8.519531 2.390625 -8.5625 C 2.609375 -8.601562 2.816406 -8.660156 3.015625 -8.734375 C 3.222656 -8.804688 3.378906 -8.882812 3.484375 -8.96875 C 3.597656 -9.050781 3.707031 -9.171875 3.8125 -9.328125 C 3.914062 -9.484375 4 -9.648438 4.0625 -9.828125 C 4.132812 -10.003906 4.210938 -10.238281 4.296875 -10.53125 L 5.140625 -10.53125 L 5.140625 0 L 3.84375 0 Z M 3.84375 -7.5 "/></g></g></g><g fill="#eeeeee" fill-opacity="1"><g transform="translate(266.910594, 195.501868)"><g><path d="M 7.5625 -5.390625 C 7.5625 -4.453125 7.476562 -3.628906 7.3125 -2.921875 C 7.144531 -2.210938 6.929688 -1.65625 6.671875 -1.25 C 6.421875 -0.851562 6.117188 -0.53125 5.765625 -0.28125 C 5.410156 -0.03125 5.070312 0.132812 4.75 0.21875 C 4.4375 0.300781 4.109375 0.34375 3.765625 0.34375 C 2.960938 0.34375 2.296875 0.0976562 1.765625 -0.390625 C 1.234375 -0.878906 0.910156 -1.550781 0.796875 -2.40625 L 2.09375 -2.40625 C 2.195312 -1.90625 2.398438 -1.515625 2.703125 -1.234375 C 3.015625 -0.953125 3.398438 -0.8125 3.859375 -0.8125 C 4.609375 -0.8125 5.179688 -1.15625 5.578125 -1.84375 C 5.984375 -2.53125 6.191406 -3.519531 6.203125 -4.8125 C 5.867188 -4.40625 5.507812 -4.109375 5.125 -3.921875 C 4.738281 -3.734375 4.296875 -3.640625 3.796875 -3.640625 C 2.847656 -3.640625 2.070312 -3.953125 1.46875 -4.578125 C 0.863281 -5.203125 0.5625 -6 0.5625 -6.96875 C 0.5625 -8.007812 0.882812 -8.863281 1.53125 -9.53125 C 2.175781 -10.195312 3 -10.53125 4 -10.53125 C 4.644531 -10.53125 5.195312 -10.40625 5.65625 -10.15625 C 6.125 -9.90625 6.492188 -9.546875 6.765625 -9.078125 C 7.046875 -8.609375 7.25 -8.066406 7.375 -7.453125 C 7.5 -6.847656 7.5625 -6.160156 7.5625 -5.390625 Z M 5.515625 -8.703125 C 5.109375 -9.160156 4.601562 -9.390625 4 -9.390625 C 3.394531 -9.390625 2.890625 -9.171875 2.484375 -8.734375 C 2.085938 -8.296875 1.890625 -7.742188 1.890625 -7.078125 C 1.890625 -6.378906 2.070312 -5.820312 2.4375 -5.40625 C 2.8125 -5 3.316406 -4.796875 3.953125 -4.796875 C 4.585938 -4.796875 5.109375 -5.003906 5.515625 -5.421875 C 5.929688 -5.835938 6.140625 -6.367188 6.140625 -7.015625 C 6.140625 -7.691406 5.929688 -8.253906 5.515625 -8.703125 Z M 5.515625 -8.703125 "/></g></g></g><g fill="#eeeeee" fill-opacity="1"><g transform="translate(275.155016, 195.501868)"><g><path d="M 7.71875 -10.53125 L 7.71875 -9.421875 C 6.519531 -7.835938 5.578125 -6.289062 4.890625 -4.78125 C 4.210938 -3.269531 3.734375 -1.675781 3.453125 0 L 2.046875 0 C 2.429688 -1.726562 2.929688 -3.25 3.546875 -4.5625 C 4.171875 -5.882812 5.113281 -7.441406 6.375 -9.234375 L 0.6875 -9.234375 L 0.6875 -10.53125 Z M 7.71875 -10.53125 "/></g></g></g><g fill="#eeeeee" fill-opacity="1"><g transform="translate(283.399438, 195.501868)"><g><path d="M 4 -9.390625 C 3.675781 -9.390625 3.394531 -9.34375 3.15625 -9.25 C 2.914062 -9.164062 2.722656 -9.054688 2.578125 -8.921875 C 2.441406 -8.785156 2.328125 -8.613281 2.234375 -8.40625 C 2.148438 -8.207031 2.09375 -8.003906 2.0625 -7.796875 C 2.03125 -7.597656 2.007812 -7.375 2 -7.125 L 0.6875 -7.125 C 0.71875 -8.238281 1.007812 -9.082031 1.5625 -9.65625 C 2.125 -10.238281 2.9375 -10.53125 4 -10.53125 C 5 -10.53125 5.78125 -10.269531 6.34375 -9.75 C 6.914062 -9.238281 7.203125 -8.53125 7.203125 -7.625 C 7.203125 -6.5625 6.710938 -5.832031 5.734375 -5.4375 C 6.359375 -5.226562 6.8125 -4.925781 7.09375 -4.53125 C 7.375 -4.132812 7.515625 -3.601562 7.515625 -2.9375 C 7.515625 -1.9375 7.191406 -1.140625 6.546875 -0.546875 C 5.898438 0.046875 5.035156 0.34375 3.953125 0.34375 C 2.847656 0.34375 2.007812 0.0625 1.4375 -0.5 C 0.875 -1.0625 0.554688 -1.914062 0.484375 -3.0625 L 1.78125 -3.0625 C 1.820312 -2.289062 2.019531 -1.722656 2.375 -1.359375 C 2.738281 -0.992188 3.28125 -0.8125 4 -0.8125 C 4.675781 -0.8125 5.207031 -0.992188 5.59375 -1.359375 C 5.976562 -1.734375 6.171875 -2.253906 6.171875 -2.921875 C 6.171875 -3.554688 5.988281 -4.035156 5.625 -4.359375 C 5.257812 -4.679688 4.71875 -4.84375 4 -4.84375 L 3.453125 -4.828125 L 3.28125 -4.828125 L 3.28125 -5.9375 C 4.21875 -5.957031 4.878906 -6.070312 5.265625 -6.28125 C 5.660156 -6.5 5.859375 -6.929688 5.859375 -7.578125 C 5.859375 -8.140625 5.691406 -8.582031 5.359375 -8.90625 C 5.035156 -9.226562 4.582031 -9.390625 4 -9.390625 Z M 4 -9.390625 "/></g></g></g></svg>